<svg xmlns="http://www.w3.org/2000/svg" viewBox="0 0 31.36 31.36">
  <path
    d="M31.05 29.55l-9.81-9.81c1.75-2.09 2.81-4.78 2.81-7.71C24.05 5.4 18.66 0 12.03 0S0 5.4 0 12.03s5.39 12.03 12.03 12.03c2.93 0 5.62-1.06 7.71-2.81l9.81 9.81c.21.21.48.31.75.31s.55-.1.75-.31c.41-.41.41-1.09 0-1.5ZM12.03 21.93c-5.46 0-9.9-4.44-9.9-9.9S6.57 2.13 12.03 2.13s9.9 4.44 9.9 9.9c0 2.39-.85 4.59-2.27 6.3-.4.49-.85.94-1.33 1.33-1.71 1.42-3.91 2.27-6.3 2.27Z"
    fill="#4C806F"
  />
  <path
    d="M12.02 20c4.4 0 7.97-3.57 7.97-7.97s-3.57-7.97-7.97-7.97-7.97 3.57-7.97 7.97 3.57 7.97 7.97 7.97Z"
    fill="#4C806F"
  />
</svg>
