<?xml version="1.0" encoding="UTF-8"?>
<svg xmlns="http://www.w3.org/2000/svg" version="1.1" xmlns:xlink="http://www.w3.org/1999/xlink" viewBox="0 0 512 512">
  <defs>
    <style>
      .cls-1 {
        fill: url(#linear-gradient);
      }
    </style>
    <linearGradient id="linear-gradient" x1="256" y1="482" x2="256" y2="34" gradientTransform="translate(0 514) scale(1 -1)" gradientUnits="userSpaceOnUse">
      <stop offset="0" stop-color="#33634c"/>
      <stop offset="1" stop-color="#4c9873"/>
    </linearGradient>
  </defs>
  <!-- Generator: Adobe Illustrator 28.7.6, SVG Export Plug-In . SVG Version: 1.2.0 Build 188)  -->
  <g>
    <g id="Layer_1">
      <g id="Layer_1-2" data-name="Layer_1">
        <path class="cls-1" d="M319.2,257.8c.5-.5.8-1.1.8-1.8s-.3-1.4-.8-1.8l-131.9-124.4c-1.2-1.2-2.9-1.8-4.6-1.8-3.7,0-6.7,3-6.7,6.7v57.3c0,8.8-7.2,16-16,16H40c-4.4,0-8,3.6-8,8v80c0,4.4,3.6,8,8,8h120c8.8,0,16,7.2,16,16v57.3c0,3.7,3,6.7,6.7,6.7s3.3-.6,4.6-1.8l131.9-124.4h0ZM352,256c0,9.5-3.9,18.6-10.8,25.1l-132,124.4c-7.2,6.8-16.7,10.5-26.5,10.5-21.4,0-38.7-17.3-38.7-38.7v-41.3H40c-22.1,0-40-17.9-40-40v-80c0-22.1,17.9-40,40-40h104v-41.3c0-21.4,17.3-38.7,38.7-38.7s19.3,3.8,26.5,10.5l132,124.4c6.9,6.5,10.8,15.6,10.8,25.1ZM336,448h96c26.5,0,48-21.5,48-48V112c0-26.5-21.5-48-48-48h-96c-8.8,0-16-7.2-16-16s7.2-16,16-16h96c44.2,0,80,35.8,80,80v288c0,44.2-35.8,80-80,80h-96c-8.8,0-16-7.2-16-16s7.2-16,16-16Z"/>
      </g>
    </g>
  </g>
</svg>