<svg xmlns="http://www.w3.org/2000/svg" viewBox="0 0 29.12 31.36">
  <path
    d="M28.85 25.82c-.46.93-1.39 1.51-2.43 1.51H2.71c-1.04 0-1.98-.58-2.44-1.51-.45-.93-.34-2 .3-2.82 1.22-1.54 1.73-2.38 1.95-2.81l.2-.39c.8-1.54 1.49-2.88 1.49-9.87 0-2.43.81-4.58 2.41-6.4 1.97-2.24 4.86-3.53 7.91-3.53s5.94 1.29 7.91 3.53c1.6 1.82 2.41 3.97 2.41 6.4 0 6.92.7 8.26 1.51 9.82.07.14.15.29.23.44.22.43.73 1.26 1.95 2.81.64.82.75 1.89.3 2.82Z"
    fill="#4C806F"
  />
  <path
    d="M21.52 27.33c-1.41 2.47-4.05 4.03-6.97 4.03s-5.56-1.56-6.96-4.03h13.94Z"
    fill="#4C806F"
  />
</svg>
