<svg xmlns="http://www.w3.org/2000/svg" viewBox="0 0 33.6 33.6">
  <path
    d="M16.8 0C7.53 0 0 7.53 0 16.8s7.53 16.8 16.8 16.8 16.8-7.53 16.8-16.8S26.06 0 16.8 0Zm0 31.5c-8.11 0-14.7-6.59-14.7-14.7S8.69 2.1 16.8 2.1s14.7 6.59 14.7 14.7-6.59 14.7-14.7 14.7Z"
    fill="#4C806F"
  />
  <path
    d="M26.17 16.8c0 .58-.47 1.05-1.05 1.05h-7.27v7.27c0 .58-.47 1.05-1.05 1.05s-1.05-.47-1.05-1.05v-7.27h-7.28c-.58 0-1.05-.47-1.05-1.05s.47-1.05 1.05-1.05h7.28v-7.27c0-.58.47-1.05 1.05-1.05s1.05.47 1.05 1.05v7.27h7.27c.58 0 1.05.47 1.05 1.05Z"
    fill="#4C806F"
  />
</svg>
