<?xml version="1.0" encoding="UTF-8"?>
<svg xmlns="http://www.w3.org/2000/svg" version="1.1" xmlns:xlink="http://www.w3.org/1999/xlink" viewBox="0 0 448 512">
  <defs>
    <style>
      .cls-1 {
        fill: url(#linear-gradient);
      }
    </style>
    <linearGradient id="linear-gradient" x1="224" y1="514" x2="224" y2="2" gradientTransform="translate(0 514) scale(1 -1)" gradientUnits="userSpaceOnUse">
      <stop offset="0" stop-color="#33634c"/>
      <stop offset="1" stop-color="#4c9873"/>
    </linearGradient>
  </defs>
  <!-- Generator: Adobe Illustrator 28.7.6, SVG Export Plug-In . SVG Version: 1.2.0 Build 188)  -->
  <g>
    <g id="Layer_1">
      <g id="Layer_1-2" data-name="Layer_1">
        <path class="cls-1" d="M320,128c0-53-43-96-96-96s-96,43-96,96,43,96,96,96,96-43,96-96ZM96,128C96,57.3,153.3,0,224,0s128,57.3,128,128-57.3,128-128,128-128-57.3-128-128ZM32,480h384c-1.2-79.7-66.2-144-146.3-144h-91.4c-80,0-145,64.3-146.3,144h0ZM0,482.3c0-98.5,79.8-178.3,178.3-178.3h91.4c98.5,0,178.3,79.8,178.3,178.3s-13.3,29.7-29.7,29.7H29.7c-16.4,0-29.7-13.3-29.7-29.7Z"/>
      </g>
    </g>
  </g>
</svg>