<svg xmlns="http://www.w3.org/2000/svg" viewBox="0 0 37 40">
  <defs>
    <linearGradient id="gradient1" x1="17.51" y1="6.14" x2="17.51" y2="28.71" gradientUnits="userSpaceOnUse">
      <stop offset="0" stop-color="#33634c"/>
      <stop offset="1" stop-color="#4c9873"/>
    </linearGradient>
    <linearGradient id="gradient2" x1="18.5" y1="42" x2="18.5" y2="2.9" gradientUnits="userSpaceOnUse">
      <stop offset="0" stop-color="#33634c"/>
      <stop offset="1" stop-color="#4c9873"/>
    </linearGradient>
  </defs>
  <path fill="url(#gradient1)" d="M14.4,35.33c1.6-1.79,4.93-6.36,3.01-11.46,0,0-6.05,5.05-13.18,2.79,6.18-8.61,13.3-5.18,13.3-5.18,0,0,2.4-8.59,13.27-8.02-2.73,6.61-11.38,9.66-11.38,9.66,0,0,4.05,5.79,2.54,12.64-.05.22-.25.38-.48.38h-6.71c-.42,0-.65-.49-.37-.81h0Z"/>
  <path fill="url(#gradient2)" d="M33.35,40H3.65c-2.01,0-3.65-1.55-3.65-3.46V11.43L18.5,0l18.5,11.43v25.11c0,1.91-1.64,3.46-3.65,3.46ZM2.31,12.71v23.83c0,.63.6,1.15,1.34,1.15h29.7c.73,0,1.34-.52,1.34-1.15V12.71L18.5,2.71,2.31,12.71Z"/>
</svg>
