<svg xmlns="http://www.w3.org/2000/svg" viewBox="0 0 30.98 30.98">
  <defs>
    <linearGradient id="gradient" x1="15.49" y1="32.98" x2="15.49" y2="-.54" gradientUnits="userSpaceOnUse">
      <stop offset="0" stop-color="#33634c" />
      <stop offset="1" stop-color="#4c9873" />
    </linearGradient>
  </defs>
  <path fill="url(#gradient)" d="M30.67,29.18l-9.69-9.69c1.73-2.06,2.78-4.72,2.78-7.62C23.76,5.33,18.43,0,11.88,0S0,5.33,0,11.88s5.33,11.88,11.88,11.88c2.89,0,5.55-1.04,7.62-2.78l9.69,9.69c.2.2.47.3.74.3s.54-.1.75-.3c.41-.41.41-1.08,0-1.49ZM11.88,21.66c-5.39,0-9.78-4.39-9.78-9.78S6.49,2.1,11.88,2.1s9.78,4.39,9.78,9.78c0,2.36-.84,4.53-2.24,6.22-.39.48-.83.92-1.31,1.32-1.69,1.4-3.86,2.24-6.22,2.24Z"/>
</svg>
