<svg xmlns="http://www.w3.org/2000/svg" viewBox="0 0 37 40">
  <defs>
    <linearGradient id="grad" x1="18.5" y1="42" x2="18.5" y2="2" gradientUnits="userSpaceOnUse">
      <stop offset="0" stop-color="#33634c"/>
      <stop offset="1" stop-color="#4c9873"/>
    </linearGradient>
  </defs>
  <path fill="url(#grad)" d="M18.5,0L0,11.42v25.12c0,1.91,1.64,3.46,3.65,3.46h29.7c2.01,0,3.65-1.55,3.65-3.46V11.42L18.5,0ZM19.41,23.12s4.05,5.78,2.54,12.64c-.05.22-.25.38-.48.38h-6.71c-.42,0-.65-.49-.37-.8,1.6-1.79,4.93-6.36,3.01-11.46,0,0-6.05,5.05-13.18,2.79,6.18-8.6,13.3-5.18,13.3-5.18,0,0,2.4-8.59,13.27-8.02-2.73,6.61-11.38,9.65-11.38,9.65Z"/>
</svg>
