<?xml version="1.0" encoding="UTF-8"?>
<svg id="Layer_2" data-name="Layer 2" xmlns="http://www.w3.org/2000/svg" viewBox="0 0 1848.68 600">
  <defs>
    <style>
      .cls-1 {
        fill: #fcfcf9;
        stroke-width: 0px;
      }
    </style>
  </defs>
  <path class="cls-1" d="m139.53,326.75l49.35.41c.82,35.07,28.14,54.65,61.58,54.65,28.96,0,57.1-8.56,57.1-34.67s-23.25-38.34-60.36-44.45c-52.2-8.97-101.14-28.14-101.14-79.53,0-54.65,40.38-82.79,99.51-82.79,69.74,0,103.59,36.71,104.81,92.58l-48.94-.41c.41-35.89-29.36-48.12-57.51-48.12-33.03,0-48.53,15.5-48.53,33.44,0,22.02,24.06,32.63,56.69,39.15,55.87,10.2,104.41,23.65,104.41,83.61,0,48.94-35.07,85.24-105.22,85.24-62.4,0-110.52-32.63-111.75-99.1Z"/>
  <path class="cls-1" d="m373.72,317.78c0-61.99,38.75-108.08,100.33-108.08s105.63,48.94,99.51,120.72h-152.94c3.26,32.22,18.76,55.06,53.43,55.06,26.1,0,45.68-12.64,50.57-31.4h46.49c-7.75,45.27-45.68,71.78-97.47,71.78-66.07,0-99.92-42.41-99.92-108.08Zm99.92-68.52c-32.63,0-48.12,21.21-51.79,49.76h105.22c-2.85-28.55-21.62-49.76-53.43-49.76Z"/>
  <path class="cls-1" d="m596.43,317.78c0-61.99,38.75-108.08,100.33-108.08s105.63,48.94,99.51,120.72h-152.94c3.26,32.22,18.76,55.06,53.43,55.06,26.1,0,45.68-12.64,50.57-31.4h46.49c-7.75,45.27-45.68,71.78-97.47,71.78-66.07,0-99.92-42.41-99.92-108.08Zm99.92-68.52c-32.63,0-48.12,21.21-51.8,49.76h105.22c-2.85-28.55-21.62-49.76-53.43-49.76Z"/>
  <path class="cls-1" d="m910.31,425.86c-49.35,0-92.58-40.38-92.58-108.08s43.23-108.08,92.58-108.08c36.71,0,61.18,18.76,73,49.76h4.49v-112.97h46.9v273.25h-46.9v-43.64h-4.49c-11.83,31-36.3,49.76-73,49.76Zm77.49-108.08c0-41.6-24.06-68.52-61.58-68.52-39.97,0-60.77,30.18-60.77,68.52s19.98,68.52,60.36,68.52c37.11,0,61.99-26.92,61.99-68.52Z"/>
  <path class="cls-1" d="m1065.33,146.49h46.9v273.25h-46.9V146.49Z"/>
  <path class="cls-1" d="m1141.46,146.49h49.76v40.78h-49.76v-40.78Zm1.22,69.33h46.9v203.92h-46.9v-203.92Z"/>
  <path class="cls-1" d="m1218.8,215.82h46.9v48.94h4.08c9.38-33.85,31.4-55.06,71.37-55.06,45.68,0,73,34.67,73,88.91v121.13h-46.9v-112.56c0-35.89-18.76-55.06-48.12-55.06-31.81,0-53.43,23.66-53.43,69.33v98.29h-46.9v-203.92Z"/>
  <path class="cls-1" d="m1728.88,167.67c.66-1.8-1.24-3.42-2.94-2.54-6.5,3.36-20.84,7.15-51.14,3.43-13.41-1.65-32.15-4.62-53.85,3.4-16.18,5.98-31.61,21.36-41.55,39.57-7.98-1.21-17.76-2.24-30.97-2.24-59.15,0-98.7,37.93-98.7,80.75,0,25.68,14.28,46.9,36.71,60.77v3.66c-22.02,4.09-49.35,22.83-49.35,55.06,0,29.77,24.06,46.5,53.83,46.5,44.46,0,71.79-39.16,100.33-39.16,14.69,0,23.65,9.78,23.65,22.02,0,13.46-11.83,25.7-33.04,25.7h-33.65v36.71h37.73c54.65,0,75.85-31.81,75.85-65.66,0-31.41-20.79-60.36-57.9-60.36-44.46,0-70.15,37.11-100.33,37.11-12.64,0-22.43-6.53-22.43-22.03,0-16.31,11.83-30.18,25.29-30.18,13.05,5.3,26.09,7.75,41.6,7.75,59.54,0,94.62-39.16,94.62-78.3,0-34.18-23.85-52-23.85-52,77.44.26,103.33-51.53,110.09-69.97Zm-180.86,162.33c-28.95,0-51.8-15.9-51.8-40.78s23.26-41.61,52.21-41.61,51.8,16.32,51.8,41.2-24.08,41.19-52.21,41.19Z"/>
</svg>